<?xml version="1.0" standalone="no"?>
<!DOCTYPE svg PUBLIC "-//W3C//DTD SVG 20010904//EN"
 "http://www.w3.org/TR/2001/REC-SVG-20010904/DTD/svg10.dtd">
<svg version="1.0" xmlns="http://www.w3.org/2000/svg"
 width="370.000000pt" height="370.000000pt" viewBox="0 0 370.000000 370.000000"
 preserveAspectRatio="xMidYMid meet">
<metadata>
Created by potrace 1.11, written by Peter Selinger 2001-2013
</metadata>
<g transform="translate(0.000000,370.000000) scale(0.100000,-0.100000)"
fill="#000000" stroke="none">
<path d="M1629 3646 c-2 -2 -38 -7 -79 -10 -95 -8 -248 -33 -325 -53 -33 -8
-71 -17 -83 -19 -58 -11 -246 -80 -340 -125 -260 -123 -418 -280 -457 -452
-42 -189 143 -413 470 -568 142 -67 369 -137 500 -155 28 -3 53 -8 56 -10 3
-1 28 -6 55 -9 27 -4 60 -8 74 -11 131 -22 517 -21 675 1 17 3 48 7 70 10 167
23 388 81 533 141 374 154 592 397 544 605 -72 313 -542 565 -1197 645 -54 7
-490 15 -496 10z"/>
<path d="M335 2383 c3 -212 8 -240 62 -332 56 -95 211 -225 363 -301 142 -72
388 -154 520 -174 19 -3 58 -10 85 -15 122 -24 262 -35 460 -35 238 0 349 9
530 45 55 11 114 23 130 25 63 11 304 97 390 139 211 103 358 231 420 368 32
69 36 100 38 308 l2 167 -69 -65 c-196 -185 -485 -313 -899 -398 -41 -9 -177
-26 -252 -33 -163 -14 -569 -7 -685 13 -14 2 -68 11 -120 20 -393 65 -736 221
-940 428 l-37 37 2 -197z"/>
<path d="M335 1663 c2 -197 4 -223 24 -272 92 -228 383 -418 806 -526 108 -27
162 -38 234 -47 20 -2 31 4 31 16 0 8 4 25 9 38 5 13 9 26 9 31 1 10 44 89 58
107 7 8 14 22 16 30 2 8 13 23 26 33 12 10 20 23 17 28 -4 5 -2 9 3 9 11 0 53
35 55 47 1 7 32 35 72 66 6 4 24 19 40 32 28 24 40 29 57 26 5 0 7 5 5 12 -1
6 4 11 11 10 6 -2 12 2 12 8 0 5 5 7 10 4 6 -3 10 -1 10 5 0 7 7 10 15 6 9 -3
15 0 15 10 0 8 5 12 10 9 6 -3 10 -1 10 5 0 6 4 9 9 5 5 -3 12 -1 16 4 3 5 15
8 27 6 11 -3 17 -1 14 3 -4 4 -67 7 -139 8 -140 1 -301 13 -412 29 -446 67
-781 205 -1010 419 -33 31 -61 56 -62 56 0 0 0 -98 2 -217z"/>
<path d="M3302 1856 c-11 -14 -39 -42 -63 -62 -24 -19 -53 -43 -64 -53 -85
-71 -285 -171 -461 -231 -103 -34 -127 -48 -76 -41 8 1 21 -4 30 -11 12 -10
14 -10 8 0 -4 6 -2 12 3 12 6 0 11 -6 11 -12 0 -9 4 -8 10 2 5 8 10 10 10 3 0
-6 11 -10 26 -8 15 1 28 -3 31 -12 4 -10 9 -11 19 -2 11 9 14 8 14 -1 0 -7 7
-10 15 -6 8 3 15 1 15 -4 0 -6 5 -10 11 -10 5 0 7 6 3 13 -4 6 2 4 13 -6 11
-10 30 -19 42 -20 11 -1 21 -5 21 -9 0 -4 7 -5 15 -2 8 4 15 1 15 -5 0 -6 7
-8 15 -5 8 4 15 1 15 -5 0 -6 9 -11 20 -11 11 0 20 -5 20 -12 0 -6 3 -8 6 -5
4 3 16 1 28 -5 11 -7 24 -11 29 -10 4 1 7 -3 7 -9 0 -6 7 -8 16 -5 8 3 12 2 9
-4 -6 -10 9 -15 30 -10 6 1 7 -1 3 -5 -8 -9 14 -35 25 -28 4 2 14 -3 23 -11
23 -24 29 -20 62 32 37 56 59 107 68 153 7 42 9 417 2 425 -3 3 -15 -6 -26
-20z"/>
<path d="M2458 1235 c-2 -1 -30 -5 -63 -9 -221 -22 -433 -129 -593 -300 -64
-68 -159 -206 -168 -244 -4 -15 6 -43 34 -90 83 -139 219 -275 353 -355 328
-194 753 -167 1052 65 110 87 219 214 273 320 l24 48 -24 48 c-56 110 -163
236 -271 317 -129 97 -247 151 -391 179 -68 14 -219 27 -226 21z m-34 -246
c105 -71 93 -234 -21 -290 -104 -50 -233 34 -233 154 0 37 32 102 63 128 51
43 135 47 191 8z m-345 -76 c-6 -16 -12 -59 -14 -97 -15 -378 386 -605 688
-388 134 97 206 286 172 455 -6 31 -10 57 -7 57 24 0 171 -136 225 -209 l40
-54 -19 -35 c-28 -52 -139 -167 -209 -218 -229 -163 -512 -193 -770 -81 -127
55 -263 167 -340 281 l-33 48 36 51 c61 85 200 214 234 216 4 1 3 -11 -3 -26z"/>
<path d="M335 933 c2 -187 4 -214 24 -265 112 -291 566 -521 1171 -593 30 -4
100 -8 155 -10 78 -2 96 0 81 9 -11 6 -30 21 -42 33 -15 13 -25 17 -28 10 -2
-7 -5 -5 -5 4 -1 9 -12 21 -25 29 -13 7 -48 42 -78 78 -29 35 -58 70 -65 77
-7 7 -9 15 -6 19 4 3 0 6 -7 6 -7 0 -11 3 -7 6 3 3 -2 14 -11 25 -9 11 -17 23
-17 27 0 4 -5 14 -10 22 -5 8 -10 21 -11 28 -2 8 -6 21 -10 30 -17 40 -33 116
-34 163 0 36 0 36 -52 43 -177 23 -447 103 -617 182 -116 54 -267 154 -344
228 -32 31 -59 56 -61 56 -2 0 -3 -93 -1 -207z"/>
</g>
</svg>
